<svg id="img_01" xmlns="http://www.w3.org/2000/svg" width="113.131" height="108.2" viewBox="0 0 113.131 108.2">
  <g id="패스_737" data-name="패스 737" transform="translate(-115.817 -136.001)" fill="none">
    <path d="M178.189,191.456l20.285,46.516a50.746,50.746,0,0,0,26.231-66.8,53.46,53.46,0,0,0-3.277-6.277Z" stroke="none"/>
    <path d="M 220.3558654785156 169.0732116699219 L 181.9813079833984 192.6467742919922 L 199.9878234863281 233.9383239746094 C 204.7936706542969 231.4810791015625 209.0971221923828 228.26611328125 212.8104553222656 224.3547058105469 C 217.0605621337891 219.8779144287109 220.3650665283203 214.6805572509766 222.6321411132812 208.9069976806641 C 224.8992004394531 203.1334991455078 226.0140075683594 197.0763702392578 225.9456024169922 190.9038543701172 C 225.8747863769531 184.5150756835938 224.5321960449219 178.2793579101562 221.9552612304688 172.3702392578125 C 221.4971771240234 171.3201446533203 220.9433746337891 170.1815490722656 220.3558654785156 169.0732116699219 M 221.4275817871094 164.8940124511719 C 222.6026306152344 166.8065795898438 223.8081359863281 169.1147155761719 224.7050170898438 171.1707153320312 C 235.9080200195312 196.8600158691406 224.1645812988281 226.7685546875 198.4738159179688 237.9715881347656 L 178.1889953613281 191.45556640625 L 221.4275817871094 164.8940124511719 Z" stroke="none" fill="#2b454f"/>
  </g>
  <g id="패스_738" data-name="패스 738" transform="translate(-133.061 -128.38)" fill="none">
    <path d="M190.527,185.8l-50.595-3.925a50.745,50.745,0,0,0,46.668,54.52,47.114,47.114,0,0,0,24.213-4.079Z" stroke="none"/>
    <path d="M 142.7823333740234 185.1011657714844 C 142.6958160400391 190.4979400634766 143.5141906738281 195.806884765625 145.2245178222656 200.9217224121094 C 147.1820831298828 206.7759552001953 150.2198028564453 212.1335296630859 154.2532958984375 216.8456115722656 C 158.2868041992188 221.5576782226562 163.1116485595703 225.385498046875 168.5938720703125 228.2227172851562 C 174.2682037353516 231.1593780517578 180.4044494628906 232.9011993408203 186.8322296142578 233.3998107910156 C 188.3708953857422 233.5192260742188 189.8620147705078 233.5797729492188 191.2641448974609 233.5797729492188 C 196.7325897216797 233.5797729492188 201.5319671630859 232.7042083740234 206.8353424072266 230.6962738037109 L 188.4973754882812 188.647705078125 L 142.7823333740234 185.1011657714844 M 139.9319152832031 181.8710174560547 L 190.5266418457031 185.7961273193359 L 210.8129272460938 232.3121490478516 C 204.0715179443359 235.2527465820312 198.1196594238281 236.5797729492188 191.26416015625 236.5797729492188 C 189.7593536376953 236.5797729492188 188.209716796875 236.5157470703125 186.60009765625 236.3908233642578 C 158.6577453613281 234.2232666015625 137.7628784179688 209.8133697509766 139.9319152832031 181.8710174560547 Z" stroke="none" fill="#2b454f"/>
  </g>
  <path id="패스_739" data-name="패스 739" d="M185.737,192.986l-26.563-43.239a49.212,49.212,0,0,0-24.032,39.311Z" transform="translate(-135.142 -142.801)" fill="#19b7f7"/>
  <g id="패스_740" data-name="패스 740" transform="translate(-124.917 -144.953)" fill="#f5f5f5">
    <path d="M 184.9739532470703 193.6438446044922 L 159.9930267333984 152.9792175292969 C 163.5619201660156 150.9315948486328 167.3545379638672 149.3418273925781 171.2872009277344 148.2464904785156 C 175.5601043701172 147.0563812255859 179.9826507568359 146.4529571533203 184.4320220947266 146.4529571533203 C 192.7020111083984 146.4529571533203 200.906494140625 148.5496368408203 208.1584930419922 152.5163421630859 C 211.8361968994141 154.5279998779297 215.2424011230469 157.0039672851562 218.2825012207031 159.8755187988281 C 221.0569763183594 162.4961700439453 223.5260772705078 165.4469299316406 225.6371765136719 168.6629943847656 L 184.9739532470703 193.6438446044922 Z" stroke="none"/>
    <path d="M 185.4668731689453 191.5805816650391 L 223.5139312744141 168.2069396972656 C 221.6681060791016 165.5820617675781 219.5701599121094 163.1551361083984 217.2524871826172 160.9659576416016 C 214.3056640625 158.1825256347656 211.0038146972656 155.7824249267578 207.4386596679688 153.8323516845703 C 200.40673828125 149.9860076904297 192.451171875 147.9529418945312 184.4320220947266 147.9529418945312 C 180.1186828613281 147.9529418945312 175.83154296875 148.5378723144531 171.6896820068359 149.6914825439453 C 168.370361328125 150.6159820556641 165.1537628173828 151.9039459228516 162.0931243896484 153.5321502685547 L 185.4668731689453 191.5805816650391 M 184.4810180664062 195.7071075439453 L 157.9179992675781 152.4671173095703 C 166.2028961181641 147.3776397705078 175.3730773925781 144.9529418945312 184.4320220947266 144.9529418945312 C 201.4852752685547 144.9529418945312 218.1396942138672 153.5489501953125 227.7195739746094 169.1441497802734 L 184.4810180664062 195.7071075439453 Z" stroke="none" fill="#2b454f"/>
  </g>
</svg>
