<svg id="img-02" xmlns="http://www.w3.org/2000/svg" width="125.281" height="104.195" viewBox="0 0 125.281 104.195">
  <path id="패스_878" data-name="패스 878" d="M885,458.693a17.847,17.847,0,0,1,4.51-.175l-4.462-.389Zm0,0" transform="translate(-850.293 -437.555)"/>
  <path id="패스_879" data-name="패스 879" d="M1029.317,456.325l-27.148,35.962,45.655,3.994Zm-1.787,33.685a2.239,2.239,0,1,1-2.035-2.426,2.237,2.237,0,0,1,2.035,2.426Zm1.562-17.845-.781,8.923a2.237,2.237,0,0,1-2.228,2.042c-.065,0-.131,0-.2-.007a2.241,2.241,0,0,1-2.035-2.427l.78-8.922a2.24,2.24,0,1,1,4.462.391Zm0,0" transform="translate(-923.735 -436.424)" fill="#19b7f7"/>
  <path id="패스_880" data-name="패스 880" d="M910.5,621.99h37.174l-18.587-33.455Zm0,0" transform="translate(-866.277 -519.295)" fill="none" stroke="#000" stroke-width="3"/>
  <path id="패스_881" data-name="패스 881" d="M856.954,483.253a13.449,13.449,0,0,0,12.209,14.555h.007c.395.035.788.052,1.176.052a13.435,13.435,0,0,0,1.16-26.82q-.594-.05-1.181-.051a13.452,13.452,0,0,0-13.372,12.264Zm8.533,5.242a2.243,2.243,0,0,1,2.426-2.035l2.23.2a4.475,4.475,0,0,1-1.5-8.515l.053-.6a3.879,3.879,0,1,1,4.07,4.851l-2.23-.2a4.481,4.481,0,0,1,1.5,8.522l-.053.595a2.239,2.239,0,0,1-2.228,2.044c-.066,0-.131,0-.2-.009a9975.4,9975.4,0,0,1-4.069-4.852Zm0,0" transform="translate(-832.682 -445.616)"/>
  <path id="패스_882" data-name="패스 882" d="M804.571,407.461l.39-4.461,26.762,2.338-.389,4.459Zm0,0" transform="translate(-799.88 -403)"/>
  <path id="패스_883" data-name="패스 883" d="M827.349,455.551l.21-2.4-26.768-2.341-.392,4.461L824.3,457.36a18.076,18.076,0,0,1,3.044-1.809Zm0,0" transform="translate(-797.265 -432.967)"/>
  <path id="패스_884" data-name="패스 884" d="M820.426,432.927l22.307,1.951h0l4.46.391.391-4.461-4.461-.39-22.307-1.952Zm0,0" transform="translate(-809.818 -418.962)"/>
  <path id="패스_885" data-name="패스 885" d="M806.082,528.039l19.446,1.7a18.051,18.051,0,0,1-3.27-4.78l-15.785-1.382Zm0,0" transform="translate(-800.827 -478.579)"/>
  <path id="패스_886" data-name="패스 886" d="M810.657,475.762l-.391,4.461,13.949,1.22a17.8,17.8,0,0,1,2.226-4.3Zm0,0" transform="translate(-803.449 -448.608)"/>
  <path id="패스_887" data-name="패스 887" d="M792,550.932l.389-4.459,124.892,10.908-.389,4.461Zm0,0" transform="translate(-792 -492.93)"/>
  <path id="패스_888" data-name="패스 888" d="M814.457,500.186l-17.845-1.561-.389,4.461,18.41,1.611a17.921,17.921,0,0,1-.177-4.511Zm0,0" transform="translate(-794.647 -462.938)"/>
</svg>
