<svg xmlns="http://www.w3.org/2000/svg" viewBox="0 0 100.07 99.86"><defs><style>.cls-1{fill:#19b7f7;}</style></defs><g id="Layer_2" data-name="Layer 2"><g id="Layer_1-2" data-name="Layer 1"><path d="M14.56,70.73H2.08A2,2,0,0,0,0,72.81v25a2,2,0,0,0,2.08,2.08H14.56a2,2,0,0,0,2.08-2.08v-25A2,2,0,0,0,14.56,70.73Zm-2.08,25H4.16V74.89h8.32Z"/><path d="M70.11,60.33H57.63a2,2,0,0,0-2.08,2.08V97.78a2,2,0,0,0,2.08,2.08H70.11a2,2,0,0,0,2.08-2.08V62.41A2.08,2.08,0,0,0,70.11,60.33ZM68,95.7H59.71V64.49H68Z"/><path d="M42.23,48.06H29.75a2,2,0,0,0-2.08,2.08V97.78a2,2,0,0,0,2.08,2.08H42.23a2,2,0,0,0,2.08-2.08V50.14A2,2,0,0,0,42.23,48.06ZM40.15,95.7H31.83V52.22h8.32Z"/><path d="M97.78,32.45H85.3a2,2,0,0,0-2.08,2.08V97.78a2,2,0,0,0,2.08,2.08H97.78a2,2,0,0,0,2.08-2.08V34.53A2,2,0,0,0,97.78,32.45ZM95.7,95.7H87.38V36.61H95.7Z"/><path class="cls-1" d="M85.5,16.44A9.27,9.27,0,0,0,100.07,9,9.53,9.53,0,0,0,90.7,0a9.23,9.23,0,0,0-9.15,9.15,9.48,9.48,0,0,0,1,4.16L69.07,25a9.11,9.11,0,0,0-5.2-1.66,9.34,9.34,0,0,0-6.24,2.5L41,15.6a10.4,10.4,0,0,0,.42-2.7,9.16,9.16,0,1,0-18.31,0,8.43,8.43,0,0,0,1.25,4.58L13.52,27.67a9.25,9.25,0,0,0-4.78-1.46C4.16,26.21,0,30.37,0,35.37a9.23,9.23,0,0,0,9.15,9.15,9.23,9.23,0,0,0,9.16-9.15,8.11,8.11,0,0,0-1.46-4.79L27.46,20.39a10,10,0,0,0,5,1.45,9.13,9.13,0,0,0,6.45-2.7l16.65,10a8.28,8.28,0,0,0-.63,3.12,9.16,9.16,0,0,0,18.31,0,11.22,11.22,0,0,0-1-4.37ZM9.15,40.36a5,5,0,0,1,0-10,4.73,4.73,0,0,1,3.33,1.25h.21a5,5,0,0,1,1.46,3.54c-.21,2.91-2.29,5.2-5,5.2Zm23.3-22.47a5.06,5.06,0,0,1-5-5,5,5,0,0,1,10,0,5.21,5.21,0,0,1-5,5ZM90.7,4.16a5.07,5.07,0,0,1,5,5,5,5,0,1,1-10,0A5.21,5.21,0,0,1,90.7,4.16ZM63.87,37.24a5,5,0,1,1,5-5A5.06,5.06,0,0,1,63.87,37.24Z"/></g></g></svg>