<svg xmlns="http://www.w3.org/2000/svg" viewBox="0 0 395.8 129.2"><defs><style>.cls-1{fill:#003770;}.cls-2{fill:#dadada;}.cls-3{fill:#e6007e;}</style></defs><g id="Layer_2" data-name="Layer 2"><path class="cls-1" d="M62,42.94a20.92,20.92,0,0,0-2.33-9.83h18c.22,0,.4.16.4.29V129c0,.12-.17.25-.4.25H62.37c-.24,0-.4-.13-.4-.25Z"/><path class="cls-1" d="M4.09,39v11.6H31.43c1.8,0,1.67,1.49,1.67,2a62.66,62.66,0,0,1-1.45,13.51H3.34V77.79h24.5C18.5,98.86,0,108.89,0,108.89l12.32,8c34-21.16,37-49.89,37-71.62V39Z"/><path class="cls-1" d="M139.57,129.09V95.64h33.3c.22,0,.41-.12.41-.26V84.59c0-.14-.19-.26-.41-.26H88.12c-.24,0-.41.14-.41.26V95.38c0,.12.17.26.41.26h33v33.45"/><path class="cls-1" d="M162.17,53.39c0,13.31-14,24.1-31.17,24.1S99.83,66.7,99.83,53.39,113.78,29.3,131,29.3,162.17,40.08,162.17,53.39ZM131,42.37c-7.29,0-13.2,4.94-13.2,11s5.91,11,13.2,11,13.2-4.93,13.2-11S138.28,42.37,131,42.37Z"/><path class="cls-2" d="M238.2,73.66h0q-1.86-.06-4-.18L229,73.19l1.43,10.42a8.18,8.18,0,0,0,2.77,5.68A8.74,8.74,0,0,0,238.91,91h12.56v3c0,5.19-1.57,9.2-4.81,12.25s-8.37,4.63-15.19,4.63a29.14,29.14,0,0,1-11.38-2.18,27,27,0,0,1-15-15.46,33.28,33.28,0,0,1-2.22-12.31,32.54,32.54,0,0,1,2.26-12.28,28.83,28.83,0,0,1,6.09-9.43,27.23,27.23,0,0,1,9.06-6A29.73,29.73,0,0,1,231.71,51a32,32,0,0,1,6.75.63,21.73,21.73,0,0,1,5.32,1.89,10.63,10.63,0,0,1,3.9,3.32l3.53,4.66,12-16.42L260,42.47a38.71,38.71,0,0,0-13-7.1,50,50,0,0,0-15.3-2.3,52.8,52.8,0,0,0-19.2,3.47A46.9,46.9,0,0,0,197,46.33a45.36,45.36,0,0,0-10.34,15.16,49.38,49.38,0,0,0-3.77,19.45,50.07,50.07,0,0,0,3.69,19.42,44.76,44.76,0,0,0,10.3,15.19,46.89,46.89,0,0,0,15.45,9.79,52.17,52.17,0,0,0,19.15,3.48,49.82,49.82,0,0,0,16-2.45,37.4,37.4,0,0,0,12.55-7,32.11,32.11,0,0,0,8.18-11,33.31,33.31,0,0,0,2.91-13.92V73.72H242C240.71,73.72,239.44,73.7,238.2,73.66Z"/><path class="cls-2" d="M368.23,61.52h0a44.4,44.4,0,0,0-10.37-15.21,47.55,47.55,0,0,0-15.57-9.77,55.07,55.07,0,0,0-38.48,0,47.77,47.77,0,0,0-15.49,9.77A44.31,44.31,0,0,0,278,61.52a50.11,50.11,0,0,0-3.7,19.42,50.11,50.11,0,0,0,3.7,19.42,44.31,44.31,0,0,0,10.37,15.21,47.6,47.6,0,0,0,15.49,9.77,54.93,54.93,0,0,0,38.48,0,47.38,47.38,0,0,0,15.57-9.77,44.31,44.31,0,0,0,10.37-15.21,50.11,50.11,0,0,0,3.69-19.42A50.14,50.14,0,0,0,368.23,61.52ZM352,80.94a32.54,32.54,0,0,1-2.26,12.28,28.64,28.64,0,0,1-6.08,9.43,27.24,27.24,0,0,1-9.12,6,29.88,29.88,0,0,1-11.41,2.19,29.47,29.47,0,0,1-11.46-2.19,27.38,27.38,0,0,1-9.07-6,28.48,28.48,0,0,1-6.08-9.44,34.47,34.47,0,0,1,0-24.55,28.64,28.64,0,0,1,6.08-9.43,27.18,27.18,0,0,1,9.07-6,30.95,30.95,0,0,1,22.87,0,27.24,27.24,0,0,1,9.12,6,28.8,28.8,0,0,1,6.08,9.43A32.54,32.54,0,0,1,352,80.94Z"/><path class="cls-3" d="M395.8,0,382.13,73.49l-6.59-12.43s-4.39-8-8-11.57L343,78.34,326.19,63.73l24.54-28.86c-4.08-3.08-12.58-6.31-12.58-6.31l-13.22-4.8Z"/></g></svg>