<svg xmlns="http://www.w3.org/2000/svg" width="42.533" height="42.533" viewBox="0 0 42.533 42.533">
  <g id="smaile_-_img" data-name="smaile - img" transform="translate(-92.937 -81.611)">
    <path id="패스_889" data-name="패스 889" d="M114.2,81.611a21.266,21.266,0,1,0,21.266,21.266A21.266,21.266,0,0,0,114.2,81.611Zm0,39.271a18,18,0,1,1,18-18A18,18,0,0,1,114.2,120.882Z" fill="#fff"/>
    <circle id="타원_14" data-name="타원 14" cx="2.531" cy="2.531" r="2.531" transform="translate(103.795 100.641) rotate(-76.83)" fill="#fff"/>
    <circle id="타원_15" data-name="타원 15" cx="2.531" cy="2.531" r="2.531" transform="translate(117.993 98.753) rotate(-45)" fill="#fff"/>
    <path id="패스_890" data-name="패스 890" d="M178.622,291.258a14.159,14.159,0,0,1-11.553-5.994,1.065,1.065,0,1,1,1.74-1.228,12,12,0,0,0,19.626,0,1.065,1.065,0,1,1,1.74,1.228A14.159,14.159,0,0,1,178.622,291.258Z" transform="translate(-64.419 -175.974)" fill="#fff"/>
  </g>
</svg>
